<svg xmlns="http://www.w3.org/2000/svg" width="231" height="90" fill="none"><path fill="#4B95C1" d="M146.711 34a8.8 8.8 0 0 0-1.304-4.624c-2.417.79-5.219 1.842-8.366 3.204a99 99 0 0 0-7.265 3.495c.718 3.023 2.973 5.426 5.872 6.316l-1.044 15.358h7.027l-1.043-15.354c3.543-1.083 6.123-4.427 6.123-8.394Zm-10.093-2.635c.337-.147 3.977-1.664 8.095-3.03a8.66 8.66 0 0 0-3.093-2.35v-2.252s0-1.9-1.867-1.9h-.415l-.656-12.889h-1.094l-.652 12.888h-.407s-1.867 0-1.867 1.9v2.25c-3.031 1.366-5.149 4.45-5.149 8.046 0 .247.015.495.034.739a123 123 0 0 1 7.067-3.398"/><path fill="#4B95C1" d="M119.237 43.394c.935 2.287 11.444-1.672 11.397-1.788s-9.503 2.755-9.965 1.165c-.206-.709 2.934-3.41 9.092-6.704a8.5 8.5 0 0 1-.206-1.304c-5.204 2.717-11.218 6.42-10.314 8.635m37.707-16.375c-.885-1.951-6.954-.446-12.239 1.311q.4.483.725 1.018c6.027-1.97 9.841-2.395 10.09-1.714.442 1.203-7.393 6.247-7.331 6.335.063.09 9.612-4.884 8.751-6.954"/><path fill="#F8972C" d="M139.536 33.06c1.222-.116 2.115-1.223 1.998-2.47-.116-1.245-1.199-2.159-2.421-2.039s-2.115 1.223-1.998 2.473c.116 1.247 1.199 2.156 2.421 2.04m-13.372 11.274a1.456 1.456 0 0 0 1.292-1.598c-.074-.805-.776-1.397-1.564-1.32s-1.37.79-1.292 1.598a1.447 1.447 0 0 0 1.568 1.32"/><path fill="#4B95C1" d="M187.977 37.279a37 37 0 0 0-6.978-.705c-4.8 0-10.811 1.347-10.811 6.979 0 7.95 11.083 5.457 11.083 8.212 0 1.026-1.723 1.41-3.624 1.41-2.414 0-5.072-.887-7.249-1.766v5.724c3.019.674 5.588.968 8.696.968 4.68 0 10.268-1.378 10.268-6.862 0-7.892-11.083-5.368-11.083-8.039 0-1.32 2.204-1.35 3.473-1.35 2.294 0 4.424.932 6.236 1.548l-.011-6.12Zm-19.279 5.043c0-3.902-3.593-5.043-7.245-5.043h-13.256v20.474h12.232c4.377 0 8.665-.527 8.665-5.69 0-2.055-1.812-4.284-4.742-4.663v-.058c2.809-.705 4.35-2.199 4.35-5.016m-7.912.82c0 1.556-1.541 1.966-2.957 1.966h-2.022v-3.96h2.204c1.447 0 2.778.47 2.778 1.994m.21 8.271c0 1.583-1.599 2.113-3.077 2.113h-2.115v-4.195h2.173c1.51 0 3.019.321 3.019 2.082m50.905-14.142h-22.344v6.041h7.124V57.75h8.091V43.316h7.129z"/><path fill="url(#a)" fill-rule="evenodd" d="M64.347 37.72 63.1 33.896a5.06 5.06 0 0 0 1.49-2.4c.128-.46.194-.944.19-1.431a5 5 0 0 0-.236-1.479 4.85 4.85 0 0 0-1.219-2.005 5 5 0 0 0-.896-.704 5 5 0 0 0-1.028-.48c-.063-.02-.125-.043-.19-.058-.063-.02-.129-.035-.195-.054a3 3 0 0 0-.194-.043l-.197-.039.166.027q.141.024.284.055l.279.062c.093.023.182.05.276.073a7.4 7.4 0 0 1 1.75.774 7.2 7.2 0 0 1 1.288 1.01 6.94 6.94 0 0 1 1.75 2.876 7.35 7.35 0 0 1 .066 4.18 7.3 7.3 0 0 1-2.138 3.452v.008Z" clip-rule="evenodd"/><path fill="#CD307E" fill-rule="evenodd" d="M64.304 25.219a6.45 6.45 0 0 1 3.47 2.767c.267.441.488.925.651 1.444a6.73 6.73 0 0 1-1.882 6.986 6.4 6.4 0 0 1-2.196 1.308 7.3 7.3 0 0 0 2.138-3.452 7.3 7.3 0 0 0-.066-4.18 6.94 6.94 0 0 0-1.75-2.876 7 7 0 0 0-1.288-1.01 7 7 0 0 0-1.863-.805q-.193-.051-.392-.097c-.132-.027-.264-.054-.396-.073a7 7 0 0 0-.4-.05 6.3 6.3 0 0 1 1.013-.225 6.5 6.5 0 0 1 2.002.031q.492.087.96.244z" clip-rule="evenodd"/><path fill="url(#b)" fill-rule="evenodd" d="m54.894 37.22 1.634-3.668h.271c.09 0 .179-.008.272-.016l.268-.03q.134-.018.264-.047a4.7 4.7 0 0 0 1.09-.356q.526-.24.982-.6c.306-.24.586-.515.83-.829.248-.313.462-.661.633-1.04a4.9 4.9 0 0 0 .38-2.888 5.2 5.2 0 0 0-1.21-2.574h.026a7.3 7.3 0 0 1 1.126 1.723 7.4 7.4 0 0 1 .656 4.052c-.09.7-.28 1.397-.59 2.07a7.5 7.5 0 0 1-.912 1.498 7.2 7.2 0 0 1-2.608 2.059 7.2 7.2 0 0 1-2.332.627 7 7 0 0 1-.78.023v-.003Z" clip-rule="evenodd"/><path fill="#1995D3" fill-rule="evenodd" d="M60.338 25.169a6.6 6.6 0 0 1 2.038 1.575 6.7 6.7 0 0 1 1.269 2.163c.283.79.422 1.634.395 2.485a6.6 6.6 0 0 1-.593 2.531 7 7 0 0 1-.835 1.374 6.5 6.5 0 0 1-2.394 1.889c-.458.213-.94.371-1.436.468a6.4 6.4 0 0 1-2.93-.09 6.4 6.4 0 0 1-.962-.343h.392a6 6 0 0 0 .772-.07 7 7 0 0 0 1.948-.58 7.2 7.2 0 0 0 2.608-2.06 7.25 7.25 0 0 0 1.502-3.568c.089-.7.07-1.401-.043-2.082a7.5 7.5 0 0 0-.613-1.97 7.6 7.6 0 0 0-1.126-1.73z" clip-rule="evenodd"/><path fill="url(#c)" fill-rule="evenodd" d="m48.627 31.005 3.547-1.78c.267.232.559.437.865.607a4.88 4.88 0 0 0 3.042.57c.124-.02.253-.04.377-.07a5 5 0 0 0 .741-.232c.12-.05.244-.101.365-.163a4.9 4.9 0 0 0 2.088-1.997 5.25 5.25 0 0 0 .66-2.771h.026a7.7 7.7 0 0 1-.202 2.063 7.6 7.6 0 0 1-.745 1.923 7 7 0 0 1-1.26 1.645 6.9 6.9 0 0 1-2.267 1.46q-.263.103-.532.185a6.6 6.6 0 0 1-1.075.24 7.1 7.1 0 0 1-2.996-.228 7.2 7.2 0 0 1-2.631-1.455z" clip-rule="evenodd"/><path fill="#3FBBC3" fill-rule="evenodd" d="M60.338 25.165c.369.82.567 1.68.602 2.535a7 7 0 0 1-.357 2.5 6.7 6.7 0 0 1-1.234 2.183 6.45 6.45 0 0 1-7.882 1.529 6.6 6.6 0 0 1-1.622-1.196 6.7 6.7 0 0 1-1.218-1.707 7 7 0 0 0 1.245.87 7.4 7.4 0 0 0 1.386.585 7.06 7.06 0 0 0 3.535.132c.178-.039.36-.09.535-.143a6.7 6.7 0 0 0 1.056-.419 6.95 6.95 0 0 0 3.004-2.871c.337-.604.586-1.25.745-1.924s.229-1.37.201-2.067z" clip-rule="evenodd"/><path fill="#04AF4B" fill-rule="evenodd" d="M47.614 22.235a7.36 7.36 0 0 0 1.824 3.665 7.08 7.08 0 0 0 4.133 2.198 6.6 6.6 0 0 0 1.078.074 6.7 6.7 0 0 0 1.948-.31 7.4 7.4 0 0 0 1.32-.56 7.5 7.5 0 0 0 2.189-1.846l.1.134a6.6 6.6 0 0 1-.865 1.788 6.7 6.7 0 0 1-1.304 1.425 6.5 6.5 0 0 1-1.634.979 6.3 6.3 0 0 1-2.351.484c-.167 0-.33 0-.497-.012a7 7 0 0 1-.5-.054 6.4 6.4 0 0 1-2.848-1.169 6.6 6.6 0 0 1-1.708-1.834 6.73 6.73 0 0 1-.885-4.962" clip-rule="evenodd"/><path fill="url(#d)" fill-rule="evenodd" d="m47.614 22.235 3.853.898a5.1 5.1 0 0 0 1.265 2.547 5 5 0 0 0 1.118.905 4.9 4.9 0 0 0 2.5.677 4.8 4.8 0 0 0 1.413-.232 5 5 0 0 0 1.82-1.06 5.3 5.3 0 0 0 .713-.798h.027a7.6 7.6 0 0 1-1.025 1.142 7.2 7.2 0 0 1-2.62 1.525 6.8 6.8 0 0 1-2.032.337c-.179 0-.358 0-.536-.016a6.6 6.6 0 0 1-1.087-.162 7.1 7.1 0 0 1-3.59-2.094 7.3 7.3 0 0 1-1.167-1.695 7.3 7.3 0 0 1-.656-1.97z" clip-rule="evenodd"/><path fill="#04AF4B" fill-rule="evenodd" d="M60.323 25.16q-.011.055-.027.11c-.008.034-.02.073-.028.108l-.03.108-.032.104-.1-.135q.03-.033.054-.074c.02-.023.035-.046.054-.073.02-.023.035-.05.054-.074.02-.023.035-.05.055-.073Z" clip-rule="evenodd"/><path fill="url(#e)" fill-rule="evenodd" d="m51.747 15.175 2.584 3.046a5.1 5.1 0 0 0-.446 2.814 5.07 5.07 0 0 0 1.172 2.67c.268.314.566.585.885.813.318.225.663.41 1.016.55a5 5 0 0 0 2.236.321 3 3 0 0 0 .275-.035c.093-.011.182-.027.276-.046.089-.02.182-.039.271-.062q.137-.035.272-.077h.027c-.128.038-.256.077-.388.108-.132.035-.26.062-.392.089a7 7 0 0 1-.795.116 7.2 7.2 0 0 1-1.634-.043 7 7 0 0 1-3.05-1.204 7 7 0 0 1-1.277-1.168 7.3 7.3 0 0 1-1.14-1.827 7.4 7.4 0 0 1-.513-4.083c.109-.681.31-1.35.61-1.982h.01Z" clip-rule="evenodd"/><path fill="#C3D834" fill-rule="evenodd" d="M51.747 15.175a7.37 7.37 0 0 0-.097 6.065 7.2 7.2 0 0 0 2.417 2.996 7 7 0 0 0 3.05 1.203 7.4 7.4 0 0 0 2.034-.003 8 8 0 0 0 .788-.159 15 15 0 0 0 .388-.112 6.7 6.7 0 0 1-1.754 1.072q-.466.192-.951.313a7 7 0 0 1-.978.163q-.751.064-1.498-.039a6.3 6.3 0 0 1-1.451-.387q-.707-.28-1.343-.731a6.5 6.5 0 0 1-1.168-1.073 6.7 6.7 0 0 1-1.587-4.783c.05-.84.26-1.672.62-2.442a6.6 6.6 0 0 1 1.538-2.086z" clip-rule="evenodd"/><path fill="url(#f)" fill-rule="evenodd" d="m60.28 11.924-.008 4.03a4.96 4.96 0 0 0-2.142 1.818 5.05 5.05 0 0 0-.83 2.795c0 .468.066.917.182 1.343.12.425.295.828.516 1.2a5.1 5.1 0 0 0 1.808 1.796l-.193-.113a7.5 7.5 0 0 1-1.463-1.122 7.3 7.3 0 0 1-1.141-1.456 7.1 7.1 0 0 1-1.005-3.657 7.3 7.3 0 0 1 .314-2.136 7.18 7.18 0 0 1 3.962-4.493z" clip-rule="evenodd"/><path fill="#F9E523" fill-rule="evenodd" d="M60.28 11.924a7 7 0 0 0-1.727 1.084c-.52.441-.974.956-1.354 1.529a7.3 7.3 0 0 0-.88 1.88 7.3 7.3 0 0 0-.315 2.137 7.1 7.1 0 0 0 1.23 4.006c.384.573.85 1.084 1.374 1.521.524.441 1.11.805 1.738 1.084a6.5 6.5 0 0 1-2.503-.55 6.65 6.65 0 0 1-3.45-3.51 6.6 6.6 0 0 1-.512-2.558 6.7 6.7 0 0 1 1.874-4.657 6.6 6.6 0 0 1 2.034-1.424 6.4 6.4 0 0 1 2.495-.545z" clip-rule="evenodd"/><path fill="#ED1C24" fill-rule="evenodd" d="M37.319 58.097h-6.384l-1.85-5.902h-9.248l-1.831 5.902h-6.353l9.473-26.527h6.946zM27.742 47.61l-2.79-8.918c-.206-.67-.353-1.463-.439-2.388h-.143a10.4 10.4 0 0 1-.45 2.311l-2.83 8.99h6.656zm26.97 10.487H38.044v-2.423l9.32-12.207h-8.393v-4.311h15.666v2.883l-8.832 11.747h8.906v4.311Zm8.63-6.421c0 .801.186 1.413.563 1.823s.88.62 1.505.62c.315 0 .633-.032.943-.093.314-.059.633-.12.947-.182v4.11c-.695.182-1.416.333-2.185.449q-1.154.179-2.402.178-1.141 0-2.08-.387a4.5 4.5 0 0 1-1.599-1.123 5.1 5.1 0 0 1-1.02-1.76c-.24-.693-.365-1.471-.365-2.338V39.156h5.697v12.52zm5.149 5.922V52.86q1.423.87 2.821 1.292 1.403.423 2.655.422c1.016 0 1.82-.14 2.402-.422.59-.282.88-.712.88-1.292 0-.372-.127-.682-.395-.93a3.6 3.6 0 0 0-1.028-.642 12 12 0 0 0-1.37-.499c-.497-.151-.97-.317-1.432-.5a14 14 0 0 1-1.952-.917 5.7 5.7 0 0 1-1.417-1.141 4.5 4.5 0 0 1-.865-1.498c-.206-.569-.303-1.239-.303-2.013 0-1.06.23-1.977.68-2.74a5.6 5.6 0 0 1 1.812-1.873 8.1 8.1 0 0 1 2.592-1.072q1.461-.342 3.038-.34c.823 0 1.653.061 2.5.197.85.127 1.684.317 2.498.56v4.514a8.6 8.6 0 0 0-2.328-.972 9.6 9.6 0 0 0-2.44-.321c-.377 0-.73.03-1.06.1a3 3 0 0 0-.885.299c-.252.127-.45.298-.594.499a1.15 1.15 0 0 0-.217.693c0 .34.105.638.322.882.221.248.5.46.854.639q.528.272 1.168.48l1.28.437c.761.27 1.448.569 2.069.89.613.321 1.145.693 1.583 1.13.439.43.78.933 1.017 1.517q.353.87.353 2.071.002 1.683-.718 2.88a5.76 5.76 0 0 1-1.901 1.938c-.792.5-1.708.867-2.744 1.092a15 15 0 0 1-3.22.34q-3.061 0-5.678-.96zm28.786.279q-1.273.679-3.826.68c-4.036 0-6.062-2.14-6.062-6.416v-8.677h-3.007v-4.312h3.007v-4.087l5.713-1.668v5.751h4.171v4.312h-4.171v7.651c0 1.978.768 2.961 2.3 2.961q.91.001 1.871-.538v4.33zm18.681.22h-5.421v-2.72h-.074q-1.87 3.18-5.526 3.18c-1.808 0-3.225-.518-4.261-1.56-1.032-1.04-1.548-2.437-1.548-4.171 0-3.673 2.134-5.798 6.399-6.363l5.045-.681q0-3.106-3.307-3.108c-2.204 0-4.315.67-6.309 2.013v-4.401q1.198-.632 3.275-1.11 2.072-.481 3.783-.48c5.293 0 7.944 2.697 7.944 8.08zm-5.386-7.698v-1.277l-3.372.441c-1.863.248-2.791 1.103-2.791 2.578 0 .662.222 1.211.676 1.637.458.422 1.071.639 1.843.639 1.079 0 1.948-.38 2.631-1.138.675-.759 1.017-1.719 1.017-2.88z" clip-rule="evenodd"/><path fill="url(#g)" fill-rule="evenodd" d="m72.896 22.08-3.842.933a5.2 5.2 0 0 0-.706-.782 5 5 0 0 0-.846-.608 5.3 5.3 0 0 0-.951-.418A5 5 0 0 0 65.523 21q-.188-.015-.38-.02c-.129 0-.257 0-.385.012a4.3 4.3 0 0 0-.772.12 4.7 4.7 0 0 0-2.177 1.189 5 5 0 0 0-.776.952q-.333.522-.532 1.114l.117-.34a7.4 7.4 0 0 1 1.878-2.965 7 7 0 0 1 1.428-1.053 6.6 6.6 0 0 1 2.255-.766c.186-.027.368-.05.554-.062a6.3 6.3 0 0 1 1.094.008 6.9 6.9 0 0 1 2.84.894c.432.248.84.538 1.212.875.372.333.714.708 1.013 1.122z" clip-rule="evenodd"/><path fill="#EF5628" fill-rule="evenodd" d="M67.168 17.107c.671.058 1.32.224 1.929.483a6.55 6.55 0 0 1 3.799 4.486 7.4 7.4 0 0 0-1.013-1.122 7.2 7.2 0 0 0-1.21-.875 6.94 6.94 0 0 0-3.385-.921 7 7 0 0 0-.55.02 7 7 0 0 0-1.11.17 6.8 6.8 0 0 0-1.953.805c-.59.36-1.117.809-1.575 1.32a7.3 7.3 0 0 0-1.133 1.71 7.7 7.7 0 0 0-.636 1.974 6.9 6.9 0 0 1-.05-2.609 6.8 6.8 0 0 1 .88-2.36 6.6 6.6 0 0 1 1.669-1.85 6.3 6.3 0 0 1 2.825-1.185 6 6 0 0 1 .508-.058c.17-.011.338-.02.504-.015q.25 0 .501.023z" clip-rule="evenodd"/><path fill="url(#h)" fill-rule="evenodd" d="m71.825 31.198-3.516-1.834c.035-.484 0-.968-.101-1.432a5.2 5.2 0 0 0-.489-1.34 4.93 4.93 0 0 0-2.033-2.035 4 4 0 0 0-.346-.166 4 4 0 0 0-.353-.136 4 4 0 0 0-.357-.104 4.7 4.7 0 0 0-1.257-.143 5 5 0 0 0-.885.1 5 5 0 0 0-1.645.666l.264-.163a7.6 7.6 0 0 1 1.144-.588 7 7 0 0 1 1.223-.372 7.3 7.3 0 0 1 1.269-.147 6.85 6.85 0 0 1 2.817.55 6.9 6.9 0 0 1 2.196 1.506 7.3 7.3 0 0 1 1.223 1.656 7.36 7.36 0 0 1 .85 3.975l-.004.008Z" clip-rule="evenodd"/><path fill="#E9292B" fill-rule="evenodd" d="M67.149 21.743q.239.042.477.101a10 10 0 0 1 .473.14 7 7 0 0 1 .924.402 6.5 6.5 0 0 1 1.979 1.63 6.7 6.7 0 0 1 1.184 2.194c.252.793.357 1.64.302 2.484a6.7 6.7 0 0 1-.663 2.5 7.36 7.36 0 0 0-.85-3.975 7 7 0 0 0-1.223-1.656 7 7 0 0 0-2.7-1.699 6.4 6.4 0 0 0-1.029-.259 6.9 6.9 0 0 0-3.011.162 7.2 7.2 0 0 0-2.681 1.405 6.66 6.66 0 0 1 2.918-2.845 6.4 6.4 0 0 1 1.897-.6 6.2 6.2 0 0 1 1.999.02z" clip-rule="evenodd"/><path fill="url(#i)" fill-rule="evenodd" d="m67.84 14.405-2.306 3.27a6 6 0 0 0-.264-.05 3 3 0 0 0-.267-.035q-.135-.012-.268-.019a4.8 4.8 0 0 0-2.468.526 4.9 4.9 0 0 0-1.777 1.548 4.8 4.8 0 0 0-.598 1.146 5 5 0 0 0-.276 1.223 5.2 5.2 0 0 0 .032 1.243q.087.616.322 1.2l-.124-.31a7.56 7.56 0 0 1-.505-3.514c.058-.596.19-1.189.4-1.761a7 7 0 0 1 .861-1.645 7.2 7.2 0 0 1 1.168-1.29 6.97 6.97 0 0 1 5.704-1.602q.192.032.38.074l-.015-.004Z" clip-rule="evenodd"/><path fill="#F49429" fill-rule="evenodd" d="M64.126 13.217a6.37 6.37 0 0 1 3.714 1.192c-.129-.027-.253-.054-.38-.073a6 6 0 0 0-.769-.085 7 7 0 0 0-2.006.182 7.2 7.2 0 0 0-1.541.568 7 7 0 0 0-1.39.937 7.1 7.1 0 0 0-2.46 5.264 7.6 7.6 0 0 0 1.036 3.967 6.7 6.7 0 0 1-1.718-1.936 6.9 6.9 0 0 1-.858-2.372 6.7 6.7 0 0 1 .066-2.52 6.5 6.5 0 0 1 1.048-2.376 6.5 6.5 0 0 1 2.348-2.043 6.3 6.3 0 0 1 1.416-.523q.733-.179 1.49-.178z" clip-rule="evenodd"/><path fill="#fff" d="m18.995 77.011-.47-1.226H14.54l-.47 1.254c-.182.487-.337.82-.469.99q-.193.255-.636.256a.95.95 0 0 1-.664-.275q-.286-.272-.287-.62 0-.197.066-.413.065-.215.221-.593l2.507-6.347q.105-.273.256-.658.15-.384.322-.634.171-.255.447-.41c.182-.105.415-.16.686-.16s.509.055.691.16c.182.104.334.24.446.402q.17.244.288.53.117.284.298.759l2.561 6.308q.303.719.303 1.05c0 .22-.093.433-.283.622a.94.94 0 0 1-.687.283.9.9 0 0 1-.4-.082.8.8 0 0 1-.28-.228 2.2 2.2 0 0 1-.244-.441c-.085-.197-.163-.372-.225-.523zm-3.93-2.713h2.929l-1.479-4.032zm28.378-4.428h-4.47v2.4h4.116q.453.001.68.205a.7.7 0 0 1 .224.538.7.7 0 0 1-.22.542c-.148.14-.373.21-.684.21h-4.117v2.778h4.626q.466 0 .706.217.239.215.237.576c0 .24-.078.418-.237.565-.16.144-.392.217-.706.217h-5.394c-.43 0-.745-.097-.931-.286q-.284-.286-.284-.925V69.56c0-.287.043-.515.128-.697a.82.82 0 0 1 .396-.395q.273-.121.69-.123h5.243c.319 0 .551.07.707.209a.7.7 0 0 1 .229.55.73.73 0 0 1-.23.557c-.155.139-.387.209-.706.209zm19.759 4.068h-.694v3.14q-.001.618-.276.912a.94.94 0 0 1-.714.295q-.476 0-.737-.306c-.175-.205-.26-.503-.26-.902v-7.52q.001-.64.287-.925t.927-.286h3.229a10 10 0 0 1 1.145.058q.475.059.857.228a2.48 2.48 0 0 1 1.355 1.39q.184.476.182 1.01c0 .727-.206 1.312-.617 1.745-.411.438-1.036.743-1.874.925.353.186.686.46 1.009.828q.481.545.857 1.165c.252.41.446.782.59 1.115s.21.557.21.685a.7.7 0 0 1-.125.383.85.85 0 0 1-.337.302 1.06 1.06 0 0 1-.493.108.95.95 0 0 1-.563-.158 1.5 1.5 0 0 1-.392-.395 17 17 0 0 1-.446-.708l-.795-1.32c-.288-.484-.54-.855-.765-1.107q-.337-.378-.687-.518-.349-.14-.877-.14zm1.137-4.106h-1.831v2.686h1.777q.715-.001 1.203-.124.489-.12.745-.422.255-.295.256-.816-.001-.407-.206-.717a1.27 1.27 0 0 0-.574-.464c-.233-.097-.687-.147-1.37-.147zm24.77-1.657q1.526 0 2.615.616 1.094.615 1.653 1.753.561 1.138.563 2.67.001 1.134-.307 2.06a4.4 4.4 0 0 1-.923 1.606 4.04 4.04 0 0 1-1.51 1.04q-.894.36-2.053.36c-.772 0-1.451-.123-2.06-.37a4.06 4.06 0 0 1-1.517-1.046 4.5 4.5 0 0 1-.92-1.621 6.6 6.6 0 0 1-.31-2.048c0-.735.108-1.44.325-2.067s.528-1.16.94-1.598a4.1 4.1 0 0 1 1.497-1.01q.884-.349 2.007-.349zm2.82 5.028q0-1.073-.349-1.862-.347-.784-.993-1.188-.645-.404-1.482-.402a2.6 2.6 0 0 0-1.099.224 2.5 2.5 0 0 0-.869.65c-.244.287-.434.647-.574 1.092-.14.44-.21.94-.21 1.49s.07 1.056.21 1.505c.14.45.337.82.594 1.119q.384.441.88.662c.334.147.695.22 1.095.22q.761 0 1.4-.379c.428-.252.765-.646 1.017-1.173q.378-.794.377-1.954zm25.573 1.981q.001.888-.458 1.595t-1.338 1.107q-.883.4-2.092.399-1.45 0-2.394-.546a3.2 3.2 0 0 1-1.087-1.049q-.419-.656-.419-1.277-.002-.36.252-.615a.86.86 0 0 1 .641-.256q.315 0 .531.201c.144.132.268.333.373.592q.187.467.403.782.217.316.613.515.396.204 1.037.205.883.001 1.435-.41.552-.413.551-1.022 0-.487-.298-.79a1.95 1.95 0 0 0-.769-.464q-.47-.161-1.261-.34-1.053-.246-1.769-.577a2.86 2.86 0 0 1-1.13-.902q-.419-.57-.419-1.416c0-.566.148-1.014.443-1.432q.44-.627 1.276-.964c.559-.225 1.211-.337 1.968-.337q.901 0 1.56.225c.438.147.803.348 1.094.592a2.5 2.5 0 0 1 .636.778c.132.27.202.534.202.793a.93.93 0 0 1-.252.635.81.81 0 0 1-.625.282c-.229 0-.399-.058-.52-.17q-.174-.168-.384-.557-.267-.554-.64-.863-.375-.31-1.203-.31-.77 0-1.242.337-.47.337-.469.809a.84.84 0 0 0 .159.507q.163.213.442.367.28.152.567.24t.95.256q.827.191 1.502.425.674.234 1.145.566t.733.843q.263.512.264 1.25zm19.907-.874h-1.82v2.767q0 .593-.279.902a.92.92 0 0 1-.71.306.95.95 0 0 1-.722-.302q-.274-.304-.275-.89v-7.536q0-.655.302-.933.303-.278.955-.278h2.546q1.128 0 1.738.174.602.166 1.04.553c.291.26.512.573.664.949q.226.558.225 1.261 0 1.493-.924 2.264-.926.771-2.747.77zm-.481-4.482h-1.339v2.988h1.339q.703 0 1.172-.147c.314-.097.555-.26.718-.48s.248-.515.248-.875q-.001-.646-.38-1.052-.43-.434-1.758-.434m25.294 7.183-.47-1.227h-3.985l-.47 1.254q-.272.733-.469.991-.193.256-.637.256a.95.95 0 0 1-.663-.275q-.287-.272-.288-.62.001-.197.066-.413a7 7 0 0 1 .222-.593l2.506-6.347q.105-.274.257-.658.148-.383.322-.635.173-.25.446-.41.273-.157.687-.159c.275 0 .508.055.69.16q.279.157.447.402.169.244.287.53.117.284.299.758l2.561 6.309q.303.719.303 1.049c0 .22-.094.433-.284.623a.94.94 0 0 1-.687.282.9.9 0 0 1-.399-.08.8.8 0 0 1-.28-.23 2.2 2.2 0 0 1-.244-.44q-.13-.297-.225-.523zm-3.931-2.713h2.925l-1.478-4.033-1.451 4.033zm29.93.732q-.001.465-.229 1.01c-.155.364-.396.716-.726 1.068q-.495.52-1.265.852-.768.325-1.792.325-.775 0-1.409-.147a4 4 0 0 1-1.153-.457 3.9 3.9 0 0 1-.954-.817 5 5 0 0 1-.664-1.03 5.5 5.5 0 0 1-.411-1.215 6.5 6.5 0 0 1-.136-1.373q.002-1.178.345-2.114a4.5 4.5 0 0 1 .986-1.598 4.25 4.25 0 0 1 1.506-1.01 4.9 4.9 0 0 1 1.839-.349q1.188.002 2.119.473.93.474 1.424 1.168.496.696.497 1.316a.87.87 0 0 1-.241.6.76.76 0 0 1-.582.26c-.252 0-.446-.062-.57-.178q-.191-.18-.423-.62-.39-.726-.912-1.087-.524-.36-1.292-.36c-.815 0-1.467.31-1.948.925q-.727.93-.726 2.632c0 .758.109 1.393.322 1.896q.32.756.908 1.13.587.372 1.378.372.854 0 1.447-.422c.396-.283.691-.697.893-1.243q.128-.388.314-.63.187-.244.601-.244a.84.84 0 0 1 .61.247c.17.167.252.368.252.612zm22.658-5.16h-4.47v2.4h4.117q.454.001.679.205a.7.7 0 0 1 .225.538.7.7 0 0 1-.221.542q-.219.21-.683.21h-4.117v2.778h4.626q.466 0 .706.217.238.215.237.576a.72.72 0 0 1-.237.565q-.237.217-.706.217h-5.394c-.431 0-.745-.097-.932-.286q-.284-.286-.283-.925V69.56c0-.287.043-.515.128-.697a.82.82 0 0 1 .396-.395q.272-.121.691-.123h5.242c.319 0 .551.07.707.209a.7.7 0 0 1 .229.55.74.74 0 0 1-.229.557c-.156.139-.388.209-.707.209z"/><defs><linearGradient id="a" x1="63.839" x2="61.687" y1="28.996" y2="34.875" gradientUnits="userSpaceOnUse"><stop stop-color="#9B4A9C"/><stop offset=".37" stop-color="#7D2776"/><stop offset="1" stop-color="#7D2776"/></linearGradient><linearGradient id="b" x1="54.956" x2="60.141" y1="34.492" y2="30.19" gradientUnits="userSpaceOnUse"><stop stop-color="#4B69B1"/><stop offset="1" stop-color="#442A71"/></linearGradient><linearGradient id="c" x1="50.42" x2="59.096" y1="29.863" y2="28.673" gradientUnits="userSpaceOnUse"><stop stop-color="#139686"/><stop offset=".24" stop-color="#139686"/><stop offset=".8" stop-color="#04615C"/><stop offset="1" stop-color="#04615C"/></linearGradient><linearGradient id="d" x1="52.558" x2="55.848" y1="25.087" y2="24.799" gradientUnits="userSpaceOnUse"><stop stop-color="#70BF44"/><stop offset=".46" stop-color="#0EA44A"/><stop offset=".88" stop-color="#0C6543"/><stop offset="1" stop-color="#0C6543"/></linearGradient><linearGradient id="e" x1="56.679" x2="52.223" y1="24.518" y2="16.249" gradientUnits="userSpaceOnUse"><stop stop-color="#699F42"/><stop offset="1" stop-color="#AAC038"/></linearGradient><linearGradient id="f" x1="58.01" x2="60.026" y1="20.261" y2="17.868" gradientUnits="userSpaceOnUse"><stop stop-color="#9E6026"/><stop offset="1" stop-color="#E1A328"/></linearGradient><linearGradient id="g" x1="62.267" x2="71.561" y1="21.627" y2="22.398" gradientUnits="userSpaceOnUse"><stop stop-color="#9F3823"/><stop offset=".54" stop-color="#9F3823"/><stop offset="1" stop-color="#D46327"/></linearGradient><linearGradient id="h" x1="69.981" x2="66.261" y1="31.624" y2="26.409" gradientUnits="userSpaceOnUse"><stop stop-color="#BC2329"/><stop offset=".59" stop-color="#A11D25"/><stop offset="1" stop-color="#7E1423"/></linearGradient><linearGradient id="i" x1="59.077" x2="66.601" y1="21.937" y2="14.536" gradientUnits="userSpaceOnUse"><stop stop-color="#9F4423"/><stop offset=".52" stop-color="#E07228"/><stop offset="1" stop-color="#E07228"/></linearGradient></defs></svg>