<svg xmlns="http://www.w3.org/2000/svg" width="100%" height="100%" viewBox="0 0 106 38" fill="none">
<path d="M27.2436 6.77796C27.2436 2.78952 23.2552 0 23.2552 0V0.281818C23.2552 0.358243 23.2791 0.429892 23.3268 0.48721C23.7424 1.02219 25.8489 3.84036 25.8489 6.18089V9.83496C25.8489 10.0213 25.7008 10.1693 25.5145 10.1693H25.4858C25.3473 10.1693 25.2184 10.0833 25.1754 9.9496C24.5783 8.29213 23.9908 8.1345 23.5752 8.14883C23.3985 8.15361 23.2552 8.30168 23.2552 8.48319V10.3031C23.2552 10.4559 23.1549 10.5897 23.0068 10.6279C22.2855 10.8094 20.1791 11.416 18.8703 12.5624C17.9102 13.4031 16.2766 15.1561 15.2831 17.9456C14.729 19.4932 14.2848 20.3386 12.4936 20.3386H8.17554C8.12777 20.3386 8.08478 20.3291 8.04657 20.31C6.72346 19.7846 1.13009 21.1554 1.13009 22.3305C1.13009 22.5836 1.78448 22.8416 2.25259 22.9896C2.47709 23.0613 2.55829 23.3383 2.40544 23.5198C1.98032 24.0166 1.3928 24.9003 2.09974 26.6533C2.11407 26.6915 2.12362 26.7345 2.12362 26.7775C2.12362 28.6403 2.10451 28.712 0.509137 29.4237C0.399276 29.4715 0.322851 29.5813 0.313298 29.7007C-0.207349 35.6714 0.0649161 36.3975 0.122235 37.3624C0.131788 37.5391 0.279862 37.6728 0.456595 37.6728H1.66029C1.91345 37.6728 2.07108 37.4006 1.95166 37.1761C1.02501 35.4183 1.47401 31.0716 2.72547 30.8949C3.92439 30.7229 6.90975 30.8949 9.10219 27.9047C9.21683 28.0194 9.23594 28.2009 9.13563 28.3346C7.69788 30.293 6.17415 30.8949 5.56753 31.0477C5.41945 31.0859 5.31437 31.2149 5.31437 31.3725V31.4251C5.31437 31.4681 5.32392 31.5111 5.33825 31.554L7.81729 37.4674C7.86984 37.5916 7.98925 37.6728 8.123 37.6728H9.43655C9.72315 37.6728 9.876 37.3337 9.68493 37.1188C8.53856 35.8339 6.84765 32.9154 7.5928 31.6496C7.65011 31.554 7.7552 31.4967 7.86984 31.4919C9.71359 31.4107 11.1991 29.9634 12.0016 28.3012C12.0589 28.1818 12.1735 28.1101 12.3025 28.1101C12.9855 28.1101 15.0777 28.1436 15.0777 28.3107C15.4741 28.9078 15.4741 29.9061 14.8771 31.5015C13.382 35.0553 13.9934 35.8004 14.0698 37.3624C14.0794 37.5391 14.2227 37.6776 14.3994 37.6776H15.7273C15.9709 37.6776 16.1285 37.4197 16.0282 37.2C14.6144 34.162 16.2766 32.3708 17.3227 31.5158C17.4373 31.4203 17.8672 31.1003 17.8672 31.1003C17.8672 31.1003 17.8672 31.6352 17.8672 31.769C17.8768 33.3691 17.958 35.7383 18.5789 37.4627C18.6267 37.5916 18.7509 37.6776 18.8894 37.6776H20.6137C20.8764 37.6776 21.0341 37.391 20.8956 37.1665C19.6966 35.232 18.961 31.855 20.0549 29.3043C21.1869 26.6628 22.2473 25.7171 22.4479 24.1217C22.6772 22.297 22.319 19.135 22.2473 18.342C22.0467 16.1496 22.8444 13.1595 23.2456 13.1595C23.5465 13.1595 23.3937 16.1305 23.2982 17.573C23.2695 17.9886 23.6039 18.342 24.0194 18.342H24.4541C24.5687 18.342 24.6786 18.2847 24.7359 18.1844C25.0846 17.6112 26.2644 15.6624 26.4316 15.1561C26.6322 14.559 27.0287 13.9619 27.2293 12.5624C27.4012 11.3635 27.2293 7.58042 27.2293 6.78273L27.2436 6.77796ZM25.0607 12.9827C24.8314 12.9827 24.6499 12.7964 24.6499 12.5719C24.6499 12.3427 24.8362 12.1612 25.0607 12.1612C25.29 12.1612 25.4715 12.3474 25.4715 12.5719C25.4715 12.8012 25.2852 12.9827 25.0607 12.9827Z" fill="#c3984e"/>
<path d="M46.9043 11.6011C49.0261 11.6011 50.9231 12.9099 51.7361 14.9391L51.7824 15.0515H52.8664L52.7805 14.8135C51.8749 12.2489 49.5681 10.5898 46.9043 10.5898C43.4408 10.5898 40.625 13.551 40.625 17.1865C40.625 20.8219 43.4408 23.8029 46.9043 23.8029C49.4756 23.8029 51.8287 22.0976 52.7606 19.5594L52.8466 19.3214H51.7626L51.7163 19.4272C50.8636 21.4696 48.9732 22.785 46.8977 22.785C43.996 22.785 41.6363 20.2732 41.6363 17.1798C41.6363 14.0864 43.996 11.5945 46.8977 11.5945L46.9043 11.6011Z" fill="CurrentColor"/>
<path d="M61.8669 21.9183V16.7428C61.8669 14.8986 60.4854 13.8477 58.0794 13.8477C55.9577 13.8477 54.4969 14.8391 54.0673 16.5577L54.0144 16.7758H55.0455L55.0852 16.6502C55.4553 15.4605 56.4931 14.8325 58.0794 14.8325C59.3485 14.8325 60.8555 15.163 60.8555 16.7362C60.8555 17.6285 59.8641 17.873 57.6366 18.0912C55.7461 18.263 53.5781 18.7521 53.5781 21.0061C53.5781 22.8899 55.3958 23.7426 57.0813 23.7426C58.6809 23.7426 60.0293 23.2468 60.8622 22.3743C60.8886 22.8106 60.9745 23.1741 61.1199 23.4782L61.1662 23.5773H62.2172L62.118 23.3328C61.9792 22.9891 61.8669 22.3347 61.8669 21.905V21.9183ZM60.8555 18.3423V20.0807C60.8555 21.9116 58.9585 22.7313 57.0813 22.7313C56.2353 22.7313 54.6423 22.3677 54.6423 20.9863C54.6423 20.0014 55.1711 19.3008 57.7357 19.0496C58.8263 18.9571 60.0491 18.8513 60.8489 18.3423H60.8555Z" fill="CurrentColor"/>
<path d="M68.7224 13.8398C67.2418 13.8398 65.8604 14.5934 64.9879 15.8426V14.0712H63.9766V27.6544H64.9879V21.8245C65.8604 23.0539 67.2418 23.7942 68.7224 23.7942C71.3465 23.7942 73.4881 21.58 73.4881 18.8501C73.4881 16.1202 71.3531 13.8398 68.7224 13.8398ZM72.457 18.8567C72.457 21.0247 70.7781 22.7896 68.7224 22.7896C66.6668 22.7896 64.9879 21.0247 64.9879 18.8567C64.9879 16.6887 66.6668 14.871 68.7224 14.871C70.7781 14.871 72.457 16.6556 72.457 18.8567Z" fill="CurrentColor"/>
<path d="M78.8396 13.8398C76.2221 13.8398 74.0938 16.0872 74.0938 18.8501C74.0938 21.613 76.2287 23.7942 78.9454 23.7942C81.1398 23.7942 82.713 22.664 83.3806 20.6149L83.4533 20.3836H82.3957L82.356 20.4959C81.8008 22.0096 80.6507 22.7829 78.9454 22.7829C76.8302 22.7829 75.2042 21.1635 75.1051 18.9955H83.5789V18.8237C83.5987 17.5347 83.0501 16.1929 82.1049 15.2345C81.2191 14.3356 80.0558 13.8398 78.833 13.8398H78.8396ZM75.2108 17.9842C75.581 16.1665 77.0748 14.871 78.8396 14.871C80.6044 14.871 82.0983 16.1665 82.4882 17.9842H75.2108Z" fill="CurrentColor"/>
<path d="M86.0972 10H85.0859V23.5832H86.0972V10Z" fill="CurrentColor"/>
<path d="M89.5035 10H88.4922V23.5832H89.5035V10Z" fill="CurrentColor"/>
<path d="M99.3434 21.9183V16.7428C99.3434 14.8986 97.962 13.8477 95.556 13.8477C93.4342 13.8477 91.9735 14.8391 91.5438 16.5577L91.4909 16.7758H92.5221L92.5617 16.6502C92.9319 15.4605 93.9696 14.8325 95.556 14.8325C96.8251 14.8325 98.3321 15.163 98.3321 16.7362C98.3321 17.6285 97.3406 17.873 95.1131 18.0912C93.2227 18.263 91.0547 18.7521 91.0547 21.0061C91.0547 22.8899 92.8724 23.7426 94.5579 23.7426C96.1575 23.7426 97.5059 23.2468 98.3387 22.3743C98.3652 22.8106 98.4511 23.1741 98.5965 23.4782L98.6428 23.5773H99.6937L99.5946 23.3328C99.4558 22.9891 99.3368 22.3347 99.3368 21.905L99.3434 21.9183ZM98.3321 18.3423V20.0807C98.3321 21.9116 96.4351 22.7313 94.5579 22.7313C93.7118 22.7313 92.1189 22.3677 92.1189 20.9863C92.1189 20.0014 92.6477 19.3008 95.2123 19.0496C96.3029 18.9571 97.5257 18.8513 98.3255 18.3423H98.3321Z" fill="CurrentColor"/>
<path d="M40.9844 35.3873C40.9844 34.4751 41.6718 34.0587 42.6765 34.0587C43.1722 34.0587 43.5424 34.2504 43.7407 34.4156V33.8472C43.7407 33.4638 43.4697 33.173 43.0136 33.173C42.6368 33.173 42.4055 33.3448 42.2865 33.5696H41.2752C41.5198 32.7566 42.1675 32.3203 43.0665 32.3203C44.1108 32.3203 44.8313 32.9549 44.8313 33.9331V36.6035H43.7803V36.2201C43.5886 36.5043 43.0533 36.7026 42.5707 36.7026C41.6321 36.7026 40.9844 36.2135 40.9844 35.4005V35.3873ZM43.7407 35.3476C43.7407 34.9775 43.3771 34.7593 42.888 34.7593C42.3724 34.7593 42.0486 34.9709 42.0486 35.3542C42.0486 35.7376 42.3923 35.9689 42.855 35.9689C43.3375 35.9689 43.7407 35.7045 43.7407 35.3476Z" fill="#E0E0E3"/>
<path d="M45.7867 32.4077H46.831V32.9035C47.0425 32.5201 47.4656 32.3086 48.0604 32.3086C48.9726 32.3086 49.541 32.9035 49.541 33.9082V36.5852H48.4438V34.08C48.4438 33.5975 48.2125 33.2538 47.6771 33.2538C47.1879 33.2538 46.8707 33.5446 46.8707 34.1065V36.5852H45.7734V32.4011L45.7867 32.4077Z" fill="#E0E0E3"/>
<path d="M52.3203 30.9609H53.4506V36.5925H52.3203V30.9609Z" fill="#E0E0E3"/>
<path d="M54.3828 34.8017V34.2068C54.3828 33.136 55.0967 32.3164 56.3525 32.3164C57.6084 32.3164 58.3223 33.136 58.3223 34.2068V34.8017C58.3223 35.8725 57.6084 36.6921 56.3525 36.6921C55.0967 36.6921 54.3828 35.8725 54.3828 34.8017ZM57.2581 34.1341C57.2581 33.5855 56.9673 33.1757 56.3459 33.1757C55.7246 33.1757 55.4338 33.5855 55.4338 34.1341V34.8744C55.4338 35.423 55.7246 35.8328 56.3459 35.8328C56.9673 35.8328 57.2581 35.423 57.2581 34.8744V34.1341Z" fill="#E0E0E3"/>
<path d="M59.1382 32.4077H60.1826V32.9035C60.3941 32.5201 60.8171 32.3086 61.412 32.3086C62.3242 32.3086 62.8926 32.9035 62.8926 33.9082V36.5852H61.7954V34.08C61.7954 33.5975 61.564 33.2538 61.0286 33.2538C60.5395 33.2538 60.2222 33.5446 60.2222 34.1065V36.5852H59.125V32.4011L59.1382 32.4077Z" fill="#E0E0E3"/>
<path d="M68.7891 34.1856C68.7891 34.9986 68.5181 35.6993 67.9827 36.1487L68.3991 36.7767L67.6125 37.2922L67.1565 36.5916C66.8921 36.6643 66.6012 36.704 66.2774 36.704C64.6249 36.704 63.7656 35.62 63.7656 34.1856V33.366C63.7656 31.9317 64.6249 30.8477 66.2774 30.8477C67.9298 30.8477 68.7891 31.9317 68.7891 33.366V34.1856ZM66.6012 35.7521L66.1584 35.0713L66.9383 34.5888L67.3878 35.263C67.5729 35.0052 67.6588 34.6483 67.6588 34.2517V33.3197C67.6588 32.4274 67.216 31.7929 66.2774 31.7929C65.3388 31.7929 64.8959 32.4274 64.8959 33.3197V34.2517C64.8959 35.144 65.3388 35.7786 66.2774 35.7786C66.3897 35.7786 66.5021 35.772 66.6012 35.7521Z" fill="#E0E0E3"/>
<path d="M71.2031 34.8017V34.2068C71.2031 33.1096 71.917 32.3164 73.1861 32.3164C74.3031 32.3164 75.0633 33.017 75.0963 33.9755H74.0982C74.052 33.5657 73.7942 33.2021 73.2125 33.2021C72.5912 33.2021 72.3004 33.6053 72.3004 34.1672V34.8414C72.3004 35.4032 72.5912 35.8064 73.2125 35.8064C73.7942 35.8064 74.052 35.4429 74.0982 35.033H75.0963C75.0633 35.9915 74.3097 36.6921 73.1861 36.6921C71.9236 36.6921 71.2031 35.8923 71.2031 34.8017Z" fill="#E0E0E3"/>
<path d="M75.7188 34.8017V34.2068C75.7188 33.136 76.4326 32.3164 77.6885 32.3164C78.9443 32.3164 79.6582 33.136 79.6582 34.2068V34.8017C79.6582 35.8725 78.9443 36.6921 77.6885 36.6921C76.4326 36.6921 75.7188 35.8725 75.7188 34.8017ZM78.594 34.1341C78.594 33.5855 78.3032 33.1757 77.6819 33.1757C77.0605 33.1757 76.7697 33.5855 76.7697 34.1341V34.8744C76.7697 35.423 77.0605 35.8328 77.6819 35.8328C78.3032 35.8328 78.594 35.423 78.594 34.8744V34.1341Z" fill="#E0E0E3"/>
<path d="M80.4754 32.4077H81.5197V32.9035C81.7312 32.5201 82.1344 32.3086 82.7293 32.3086C83.2713 32.3086 83.6877 32.5267 83.9389 32.9035C84.243 32.5069 84.7123 32.3086 85.3204 32.3086C86.1995 32.3086 86.8142 32.9035 86.8142 33.9082V36.5852H85.7169V34.08C85.7169 33.5975 85.4988 33.2538 84.97 33.2538C84.4875 33.2538 84.1901 33.5446 84.1901 34.1065V36.5852H83.0928V34.08C83.0928 33.5975 82.8747 33.2538 82.3459 33.2538C81.8568 33.2538 81.566 33.5446 81.566 34.1065V36.5852H80.4688V32.4011L80.4754 32.4077Z" fill="#E0E0E3"/>
<path d="M91.8187 34.1605V34.8546C91.8187 35.8593 91.1907 36.6987 90.067 36.6987C89.5118 36.6987 89.0822 36.474 88.8707 36.1501V38.0009H87.7734V32.4156H88.8178V32.9113C89.0293 32.5874 89.4523 32.3164 90.0604 32.3164C91.2106 32.3164 91.8253 33.1691 91.8253 34.1605H91.8187ZM88.8641 34.2068V34.8215C88.8641 35.4561 89.2805 35.813 89.7828 35.813C90.4042 35.813 90.7214 35.3966 90.7214 34.8083V34.2134C90.7214 33.6582 90.424 33.2087 89.7894 33.2087C89.2342 33.2087 88.8641 33.6252 88.8641 34.2134V34.2068Z" fill="#E0E0E3"/>
<path d="M92.4531 35.3873C92.4531 34.4751 93.1406 34.0587 94.1453 34.0587C94.641 34.0587 95.0111 34.2504 95.2094 34.4156V33.8472C95.2094 33.4638 94.9384 33.173 94.4823 33.173C94.1056 33.173 93.8742 33.3448 93.7553 33.5696H92.744C92.9885 32.7566 93.6363 32.3203 94.5418 32.3203C95.5862 32.3203 96.3067 32.9549 96.3067 33.9331V36.6035H95.2557V36.2201C95.064 36.5043 94.5286 36.7026 94.0461 36.7026C93.1075 36.7026 92.4597 36.2135 92.4597 35.4005L92.4531 35.3873ZM95.2094 35.3476C95.2094 34.9775 94.8459 34.7593 94.3568 34.7593C93.8412 34.7593 93.5173 34.9709 93.5173 35.3542C93.5173 35.7376 93.861 35.9689 94.3237 35.9689C94.8062 35.9689 95.2094 35.7045 95.2094 35.3476Z" fill="#E0E0E3"/>
<path d="M97.2632 32.4077H98.3076V32.9035C98.5191 32.5201 98.9421 32.3086 99.537 32.3086C100.449 32.3086 101.018 32.9035 101.018 33.9082V36.5852H99.9204V34.08C99.9204 33.5975 99.689 33.2538 99.1536 33.2538C98.6645 33.2538 98.3472 33.5446 98.3472 34.1065V36.5852H97.25V32.4011L97.2632 32.4077Z" fill="#E0E0E3"/>
<path d="M102.531 37.9916L102.948 36.5771L101.5 32.4062H102.597L103.496 35.4071L104.349 32.4062H105.433L103.609 37.9916H102.531Z" fill="#E0E0E3"/>
</svg>