<?xml version="1.0" encoding="utf-8"?>
<!-- Generator: Adobe Illustrator 17.0.0, SVG Export Plug-In . SVG Version: 6.00 Build 0)  -->
<!DOCTYPE svg PUBLIC "-//W3C//DTD SVG 1.1//EN" "http://www.w3.org/Graphics/SVG/1.1/DTD/svg11.dtd">
<svg version="1.1" id="Layer_1" xmlns="http://www.w3.org/2000/svg" xmlns:xlink="http://www.w3.org/1999/xlink" x="0px" y="0px"
	 width="1000px" height="301.124px" viewBox="0 0 1000 301.124" enable-background="new 0 0 1000 301.124" xml:space="preserve">
<g>
	<path fill="#5D5D5D" d="M221.062,275.672h-14.497l-2.766,6.69h-7.403l13.916-31.22h7.135l13.961,31.22h-7.582L221.062,275.672z
		 M218.787,270.186l-4.951-11.952l-4.951,11.952H218.787z"/>
	<path fill="#5D5D5D" d="M299,276.564v5.798h-24.175v-31.22h23.594v5.798h-16.414v6.779h14.497v5.62h-14.497v7.226H299z"/>
	<path fill="#5D5D5D" d="M364.804,282.362l-6.02-8.697h-0.358h-6.288v8.697h-7.226v-31.22h13.514
		c8.341,0,13.559,4.326,13.559,11.329c0,4.683-2.364,8.116-6.422,9.856l7.001,10.035H364.804z M358.026,257.028h-5.888v10.884h5.888
		c4.415,0,6.645-2.052,6.645-5.441C364.67,259.036,362.44,257.028,358.026,257.028z"/>
	<path fill="#5D5D5D" d="M415.891,266.752c0-9.277,7.226-16.146,17.082-16.146c9.812,0,17.083,6.824,17.083,16.146
		c0,9.322-7.271,16.146-17.083,16.146C423.117,282.898,415.891,276.028,415.891,266.752z M442.742,266.752
		c0-5.932-4.194-9.99-9.769-9.99s-9.767,4.058-9.767,9.99c0,5.932,4.192,9.991,9.767,9.991S442.742,272.683,442.742,266.752z"/>
	<path fill="#5D5D5D" d="M493.206,279.285l2.453-5.441c2.632,1.917,6.556,3.256,10.303,3.256c4.283,0,6.022-1.428,6.022-3.345
		c0-5.843-18.153-1.83-18.153-13.425c0-5.307,4.281-9.724,13.157-9.724c3.924,0,7.939,0.938,10.839,2.766l-2.23,5.486
		c-2.9-1.651-5.888-2.454-8.654-2.454c-4.281,0-5.932,1.606-5.932,3.569c0,5.753,18.153,1.783,18.153,13.246
		c0,5.218-4.326,9.678-13.246,9.678C500.966,282.898,495.971,281.426,493.206,279.285z"/>
	<path fill="#5D5D5D" d="M591.345,262.471c0,6.956-5.218,11.284-13.559,11.284h-6.288v8.607h-7.226v-31.22h13.514
		C586.127,251.142,591.345,255.468,591.345,262.471z M584.031,262.471c0-3.435-2.23-5.443-6.645-5.443h-5.888v10.839h5.888
		C581.801,267.867,584.031,265.859,584.031,262.471z"/>
	<path fill="#5D5D5D" d="M655.635,275.672h-14.497l-2.764,6.69h-7.405l13.916-31.22h7.137l13.959,31.22h-7.582L655.635,275.672z
		 M653.36,270.186l-4.951-11.952l-4.951,11.952H653.36z"/>
	<path fill="#5D5D5D" d="M706.99,266.752c0-9.411,7.226-16.146,16.948-16.146c5.398,0,9.903,1.962,12.846,5.531l-4.639,4.281
		c-2.096-2.409-4.728-3.656-7.849-3.656c-5.843,0-9.991,4.102-9.991,9.99s4.149,9.991,9.991,9.991c3.121,0,5.753-1.249,7.849-3.703
		l4.639,4.283c-2.943,3.613-7.448,5.575-12.89,5.575C714.215,282.898,706.99,276.162,706.99,266.752z"/>
	<path fill="#5D5D5D" d="M805.98,276.564v5.798h-24.174v-31.22H805.4v5.798h-16.414v6.779h14.497v5.62h-14.497v7.226H805.98z"/>
</g>
<polygon fill="#1C75BC" points="220.682,152.153 208.785,167.982 227.473,192.916 251.267,192.916 "/>
<path fill="#1C75BC" d="M48.008,155.543c-7.974,0-14.782-2.821-20.423-8.46c-5.64-5.641-8.46-12.447-8.46-20.423
	c0-7.973,2.821-14.781,8.46-20.422c5.641-5.641,12.449-8.462,20.423-8.462h59.466v20.39H48.008c-2.357,0-4.362,0.826-6.016,2.48
	c-1.654,1.654-2.48,3.66-2.48,6.014c0,2.357,0.826,4.362,2.48,6.016c1.654,1.654,3.658,2.48,6.016,2.48h30.583
	c7.973,0,14.781,2.821,20.422,8.462c5.641,5.64,8.462,12.447,8.462,20.422s-2.821,14.782-8.462,20.422
	c-5.641,5.641-12.449,8.462-20.422,8.462H12.328v-20.388h66.263c2.354,0,4.36-0.826,6.014-2.482c1.654-1.652,2.48-3.658,2.48-6.014
	c0-2.356-0.826-4.36-2.48-6.014c-1.654-1.654-3.66-2.482-6.014-2.482H48.008z"/>
<path fill="#1C75BC" d="M340.501,147.593l-1.699-2.243l-35.68-47.574h23.786l23.786,31.738l11.894,15.836l-1.699,2.243v45.33
	h-20.388V147.593z M355.792,122.718l18.69-24.942h23.786l-30.583,40.778L355.792,122.718z"/>
<path fill="#1C75BC" d="M492.964,155.543h-36.138v-20.388h59.654c2.354,0,4.36-0.826,6.014-2.48c1.654-1.654,2.48-3.658,2.48-6.016
	c0-2.354-0.826-4.36-2.48-6.014c-1.654-1.654-3.66-2.48-6.014-2.48h-59.466v-20.39h59.466c7.973,0,14.781,2.821,20.422,8.462
	c5.641,5.641,8.462,12.449,8.462,20.422c0,7.976-2.811,14.771-8.428,20.39c-5.619,5.619-12.346,8.45-20.185,8.494l32.011,37.379
	h-23.788L492.964,155.543z M477.401,172.535v20.388h-20.388v-20.388H477.401z"/>
<path fill="#1C75BC" d="M648.284,192.923c-13.14,0-24.353-4.644-33.641-13.932c-9.288-9.288-13.932-20.501-13.932-33.641
	s4.644-24.353,13.932-33.642c9.288-9.286,20.501-13.932,33.641-13.932c13.14,0,24.353,4.646,33.642,13.932
	c9.286,9.29,13.932,20.503,13.932,33.642s-4.646,24.353-13.932,33.641C672.637,188.279,661.424,192.923,648.284,192.923z
	 M667.518,164.583c5.301-5.301,7.95-11.712,7.95-19.233c0-7.521-2.65-13.932-7.95-19.234c-5.302-5.301-11.713-7.95-19.234-7.95
	c-7.521,0-13.932,2.65-19.233,7.95c-5.301,5.302-7.952,11.713-7.952,19.234c0,7.521,2.651,13.932,7.952,19.233
	c5.301,5.301,11.712,7.952,19.233,7.952C655.805,172.535,662.216,169.884,667.518,164.583z"/>
<path fill="#1C75BC" d="M798.777,192.923c-13.14,0-24.353-4.644-33.641-13.932c-9.288-9.288-13.932-20.501-13.932-33.641
	s4.644-24.353,13.932-33.642c9.288-9.286,20.501-13.932,33.641-13.932c13.14,0,24.353,4.646,33.642,13.932
	c9.286,9.29,13.932,20.503,13.932,33.642s-4.646,24.353-13.932,33.641C823.13,188.279,811.917,192.923,798.777,192.923z
	 M818.012,164.583c5.301-5.301,7.95-11.712,7.95-19.233c0-7.521-2.65-13.932-7.95-19.234c-5.302-5.301-11.713-7.95-19.234-7.95
	c-7.521,0-13.932,2.65-19.233,7.95c-5.301,5.302-7.952,11.713-7.952,19.234c0,7.521,2.651,13.932,7.952,19.233
	c5.301,5.301,11.712,7.952,19.233,7.952C806.298,172.535,812.709,169.884,818.012,164.583z"/>
<path fill="#1C75BC" d="M901.698,97.776l54.437-0.068l-0.068,95.146h-20.388v-74.759l-33.981,0.069V97.776z M962.931,97.708h27.117
	v20.388h-27.117V97.708z"/>
<path fill="#1C75BC" d="M183.199,97.778v44.795c-0.215,0.231-0.413,0.463-0.628,0.71l-0.016,0.017h-0.017
	c-0.661,0.744-1.305,1.504-1.95,2.264c-1.95,2.28-3.899,4.66-5.849,7.121c-4.015,5.073-8.014,10.492-11.93,16.292V97.778H183.199z"
	/>
<linearGradient id="SVGID_1_" gradientUnits="userSpaceOnUse" x1="162.8091" y1="106.3128" x2="394.1858" y2="106.3128">
	<stop  offset="0" style="stop-color:#EF4136"/>
	<stop  offset="1" style="stop-color:#F9ED32"/>
</linearGradient>
<path fill="url(#SVGID_1_)" d="M267.402,72.217c-6.196,4.544-12.475,9.501-18.77,14.871c-3.982,3.387-7.964,6.94-11.963,10.691
	c-9.171,8.576-18.341,18.11-27.412,28.685c-2.776,3.239-5.535,6.56-8.278,9.997c-4.18,5.205-8.328,10.624-12.393,16.292
	c-1.752,2.396-3.47,4.841-5.189,7.32c-0.082,0.083-0.132,0.165-0.198,0.264c-0.611,0.843-1.223,1.702-1.817,2.561
	c-7.221,10.344-13.417,20.456-18.573,29.61v0.347l3.387,0.017l17.003,0.05c0,0,0-0.017,0.017-0.033s0.017-0.05,0.05-0.083
	c0.876-1.586,11.401-20.605,30.618-45.687c8.542-11.137,18.787-23.48,30.684-36.021c3.586-3.784,7.337-7.584,11.219-11.384
	c9.187-8.972,19.2-17.895,30.007-26.388c12.938-10.178,26.999-19.778,42.151-28.123c20.208-11.17,42.333-20.175,66.242-25.496
	C394.186,19.706,334.983,22.581,267.402,72.217z"/>
</svg>
